<svg width="1920" height="7724" viewBox="0 0 1920 7724" fill="none" xmlns="http://www.w3.org/2000/svg">
<g filter="url(#filter0_f_56_11)">
<path d="M-549 197C-351.954 197 109.666 846.5 416.833 1117C724 1387.5 590.5 1240 1112.5 1551C1634.5 1862 1515 1950 1701.46 2069.92C1887.92 2189.83 1986.65 2175.06 2063.09 2302.47C2115.72 2390.19 2105.29 2522.82 2095.36 2620.71C2082.69 2745.66 1996.01 2846.15 1918.44 2938.95C1819.48 3057.35 1689.58 3140.88 1566.27 3231.59C1365.64 3379.18 1144.97 3506.81 955.387 3667.78C719.532 3868.03 467.082 4114.8 416.833 4433.88C390.398 4601.74 386.837 4780.66 409.044 4949.07C437.748 5166.74 531.264 5354.74 640.489 5542.14C823.596 5856.32 1594.47 7058.88 1918.44 7242" stroke="#D278E0" stroke-opacity="0.32" stroke-width="540" stroke-linecap="round"/>
</g>
<defs>
<filter id="filter0_f_56_11" x="-1507" y="-761" width="4568.44" height="8961.05" filterUnits="userSpaceOnUse" color-interpolation-filters="sRGB">
<feFlood flood-opacity="0" result="BackgroundImageFix"/>
<feBlend mode="normal" in="SourceGraphic" in2="BackgroundImageFix" result="shape"/>
<feGaussianBlur stdDeviation="344" result="effect1_foregroundBlur_56_11"/>
</filter>
</defs>
</svg>
